<svg fill="currentColor" viewBox="0 0 48 48" xmlns="http://www.w3.org/2000/svg">
    <path clip-rule="evenodd"
        d="M38.85 12H45V15H38.85C38.1 18.45 35.1 21 31.5 21C27.9 21 24.9 18.45 24.15 15H3V12H24.15C24.9 8.55 27.9 6 31.5 6C35.1 6 38.1 8.55 38.85 12ZM27 13.5C27 16.05 28.95 18 31.5 18C34.05 18 36 16.05 36 13.5C36 10.95 34.05 9 31.5 9C28.95 9 27 10.95 27 13.5Z"
        fill="currentColor" fill-rule="evenodd"></path>
    <path clip-rule="evenodd"
        d="M9.15 36H3V33H9.15C9.9 29.55 12.9 27 16.5 27C20.1 27 23.1 29.55 23.85 33H45V36H23.85C23.1 39.45 20.1 42 16.5 42C12.9 42 9.9 39.45 9.15 36ZM21 34.5C21 31.95 19.05 30 16.5 30C13.95 30 12 31.95 12 34.5C12 37.05 13.95 39 16.5 39C19.05 39 21 37.05 21 34.5Z"
        fill="currentColor" fill-rule="evenodd"></path>
</svg>