<svg fill="currentColor" viewBox="0 0 48 48" xmlns="http://www.w3.org/2000/svg">
    <path clip-rule="evenodd"
        d="M22.2618 5.03896C23.0343 3.65368 24.9657 3.65368 25.7382 5.03896L45.7281 40.8831C46.5006 42.2684 45.535 44 43.9898 44H4.01015C2.46504 44 1.49935 42.2684 2.2719 40.8831L22.2618 5.03896ZM26 31V13.5H22V31H26ZM23.4635 39.9472C23.997 40.0533 24.5499 39.9988 25.0524 39.7907C25.5549 39.5825 25.9844 39.2301 26.2865 38.7778C26.5887 38.3256 26.75 37.7939 26.75 37.25C26.75 36.5207 26.4603 35.8212 25.9445 35.3055C25.4288 34.7897 24.7293 34.5 24 34.5C23.4561 34.5 22.9244 34.6613 22.4722 34.9635C22.0199 35.2656 21.6675 35.6951 21.4593 36.1976C21.2512 36.7001 21.1967 37.2531 21.3028 37.7865C21.409 38.3199 21.6709 38.8099 22.0555 39.1945C22.44 39.5791 22.9301 39.841 23.4635 39.9472Z"
        fill="currentColor" fill-rule="evenodd"></path>
</svg>