<svg fill="currentColor" viewBox="0 0 48 48" xmlns="http://www.w3.org/2000/svg">
    <path clip-rule="evenodd"
        d="M31.0012 13.7598C31.0546 13.3494 30.8569 12.9479 30.4999 12.7417C30.1428 12.5355 29.6963 12.5652 29.3675 12.8166L19.0718 20.6938C18.9639 20.7763 18.8699 20.8853 18.802 21.0031C18.734 21.1207 18.6901 21.2507 18.6725 21.3854L16.9985 34.2402C16.9452 34.6508 17.1428 35.0522 17.4999 35.2584C17.8569 35.4645 18.3035 35.435 18.6323 35.1835L28.928 27.3064C29.0358 27.2238 29.1298 27.1148 29.1977 26.9971C29.2656 26.8794 29.3097 26.7494 29.3273 26.6148L31.0012 13.7598ZM26.1649 25.25C25.4746 26.4458 23.9456 26.8554 22.7499 26.1651C21.5541 25.4747 21.1444 23.9458 21.8348 22.75C22.5252 21.5543 24.0541 21.1446 25.2499 21.835C26.4456 22.5253 26.8553 24.0543 26.1649 25.25Z"
        fill="currentColor" fill-rule="evenodd"></path>
    <path clip-rule="evenodd"
        d="M45 24C45 35.598 35.598 45 24 45C12.402 45 3 35.598 3 24C3 12.402 12.402 3 24 3C35.598 3 45 12.402 45 24ZM42 24C42 33.9411 33.9411 42 24 42C14.0589 42 6 33.9411 6 24C6 14.0589 14.0589 6 24 6C33.9411 6 42 14.0589 42 24Z"
        fill="currentColor" fill-rule="evenodd"></path>
</svg>