<svg fill="currentColor" viewBox="0 0 48 48" xmlns="http://www.w3.org/2000/svg">
    <path clip-rule="evenodd"
        d="M23.9864 4.00009C24.3242 4.00009 24.6522 4.11294 24.9185 4.32071L45 20V39.636C44.9985 40.4312 44.5623 41.4377 44 42C43.4377 42.5623 42.4311 42.9985 41.6359 43H27V28H21V43H6.5C5.70485 42.9984 4.56226 42.682 4 42.1197C3.43774 41.5575 3.00163 40.7952 3 40V21L23.0544 4.32071C23.3207 4.11294 23.6487 4.00009 23.9864 4.00009ZM30 28V40H42V21.4314L24 7.40726L6 22V40L18 40V28C18.0008 27.2046 18.3171 26.442 18.8796 25.8796C19.442 25.3171 20.2046 25.0008 21 25H27C27.7954 25.0009 28.5579 25.3173 29.1203 25.8797C29.6827 26.4421 29.9991 27.2046 30 28Z"
        fill="currentColor" fill-rule="evenodd"></path>
</svg>