<svg fill="currentColor" viewBox="0 0 48 48" xmlns="http://www.w3.org/2000/svg">
    <path
        d="M37.5 6H15C14.2046 6.00079 13.442 6.31712 12.8796 6.87956C12.3171 7.44199 12.0008 8.20459 12 9V30.8344C11.0921 30.2941 10.0565 30.0061 9 30C7.81331 30 6.65328 30.3519 5.66658 31.0112C4.67989 31.6705 3.91085 32.6075 3.45673 33.7039C3.0026 34.8003 2.88378 36.0067 3.11529 37.1705C3.3468 38.3344 3.91825 39.4035 4.75736 40.2426C5.59648 41.0818 6.66557 41.6532 7.82946 41.8847C8.99335 42.1162 10.1997 41.9974 11.2961 41.5433C12.3925 41.0892 13.3295 40.3201 13.9888 39.3334C14.6481 38.3467 15 37.1867 15 36V18H37.5V30.8343C36.5921 30.294 35.5565 30.006 34.5 30C33.3133 30 32.1533 30.3519 31.1666 31.0112C30.1799 31.6705 29.4109 32.6075 28.9567 33.7039C28.5026 34.8003 28.3838 36.0067 28.6153 37.1705C28.8468 38.3344 29.4182 39.4035 30.2574 40.2426C31.0965 41.0818 32.1656 41.6532 33.3295 41.8847C34.4933 42.1162 35.6997 41.9974 36.7961 41.5433C37.8925 41.0892 38.8295 40.3201 39.4888 39.3334C40.1481 38.3467 40.5 37.1867 40.5 36V9C40.4991 8.20463 40.1827 7.4421 39.6203 6.87969C39.0579 6.31728 38.2954 6.00091 37.5 6ZM15 9H37.5V15H15V9Z"
        fill="currentColor"></path>
</svg>