<svg fill="currentColor" viewBox="0 0 48 48" xmlns="http://www.w3.org/2000/svg">
    <path clip-rule="evenodd"
        d="M18.9999 33.4832C20.4799 34.4722 22.22 35 24 35C26.387 35 28.6761 34.0518 30.364 32.364C32.0518 30.6761 33 28.387 33 26C33 24.22 32.4722 22.4799 31.4832 20.9999C30.4943 19.5198 29.0887 18.3663 27.4442 17.6851C25.7996 17.0039 23.99 16.8257 22.2442 17.1729C20.4984 17.5202 18.8947 18.3774 17.636 19.636C16.3774 20.8947 15.5202 22.4984 15.1729 24.2442C14.8257 25.99 15.0039 27.7996 15.6851 29.4442C16.3663 31.0887 17.5198 32.4943 18.9999 33.4832ZM20.6666 21.0112C21.6533 20.3519 22.8133 20 24 20C25.5913 20 27.1174 20.6321 28.2426 21.7574C29.3679 22.8826 30 24.4087 30 26C30 27.1867 29.6481 28.3467 28.9888 29.3334C28.3295 30.3201 27.3925 31.0892 26.2961 31.5433C25.1997 31.9974 23.9933 32.1162 22.8295 31.8847C21.6656 31.6532 20.5965 31.0818 19.7574 30.2426C18.9182 29.4035 18.3468 28.3344 18.1153 27.1705C17.8838 26.0067 18.0026 24.8003 18.4567 23.7039C18.9109 22.6075 19.6799 21.6705 20.6666 21.0112Z"
        fill="currentColor" fill-rule="evenodd"></path>
    <path clip-rule="evenodd"
        d="M19.2135 7H28.7865C29.6681 6.99935 30.5275 7.27966 31.2428 7.80116C31.9581 8.32267 32.4929 9.05887 32.7713 9.9053L33.9135 13.375H40.8C41.9135 13.3763 42.9811 13.8245 43.7684 14.6212C44.5558 15.418 44.9987 16.4982 45 17.625V36.75C44.9987 37.8768 44.5558 38.957 43.7684 39.7538C42.9811 40.5505 41.9135 40.9987 40.8 41H7.2C6.08648 40.9987 5.01894 40.5505 4.23156 39.7538C3.44419 38.957 3.00128 37.8768 3 36.75V17.625C3.00128 16.4982 3.44419 15.418 4.23156 14.6212C5.01894 13.8245 6.08648 13.3763 7.2 13.375H14.0865L15.2287 9.90637C15.5069 9.0597 16.0416 8.32323 16.7569 7.80151C17.4722 7.2798 18.3317 6.99936 19.2135 7ZM40.7977 16.375C41.1048 16.3757 41.4065 16.4991 41.6346 16.73C41.8638 16.9618 41.9991 17.2835 42 17.6264L42 17.6284V36.7466L42 36.7486C41.9991 37.0915 41.8638 37.4132 41.6346 37.6451C41.4065 37.8759 41.1048 37.9993 40.7977 38L40.7965 38H7.20349L7.20233 38C6.89518 37.9993 6.59353 37.8759 6.3654 37.6451C6.13607 37.413 6.0007 37.091 6 36.7478V17.6272C6.0007 17.284 6.13607 16.962 6.3654 16.73C6.59353 16.4991 6.89518 16.3757 7.20234 16.375H16.2571L18.0788 10.8428C18.1623 10.5888 18.3206 10.3742 18.5247 10.2253C18.7283 10.0768 18.9685 9.99982 19.2113 10L28.7888 10C29.0315 9.99982 29.2718 10.0768 29.4754 10.2253C29.6795 10.3741 29.8379 10.5887 29.9215 10.8427L31.7427 16.375H40.7977Z"
        fill="currentColor" fill-rule="evenodd"></path>
</svg>