<svg fill="currentColor" height="48" viewBox="0 0 48 48" width="48" xmlns="http://www.w3.org/2000/svg">
    <path clip-rule="evenodd"
        d="M31.0001 20.2416C30.26 20.7361 29.39 21 28.5 21C27.3065 21 26.1619 20.5259 25.318 19.682C24.4741 18.8381 24 17.6935 24 16.5C24 15.61 24.2639 14.74 24.7584 13.9999C25.2529 13.2599 25.9557 12.6831 26.7779 12.3425C27.6002 12.0019 28.505 11.9128 29.3779 12.0865C30.2508 12.2601 31.0526 12.6887 31.682 13.318C32.3113 13.9474 32.7399 14.7492 32.9135 15.6221C33.0872 16.495 32.9981 17.3998 32.6575 18.2221C32.3169 19.0443 31.7401 19.7471 31.0001 20.2416ZM29.3334 15.2528C29.0867 15.088 28.7967 15 28.5 15C28.1022 15 27.7206 15.158 27.4393 15.4393C27.158 15.7206 27 16.1022 27 16.5C27 16.7967 27.088 17.0867 27.2528 17.3334C27.4176 17.58 27.6519 17.7723 27.926 17.8858C28.2001 17.9994 28.5017 18.0291 28.7926 17.9712C29.0836 17.9133 29.3509 17.7704 29.5607 17.5607C29.7704 17.3509 29.9133 17.0836 29.9712 16.7926C30.0291 16.5017 29.9994 16.2001 29.8858 15.926C29.7723 15.6519 29.58 15.4176 29.3334 15.2528Z"
        fill="currentColor" fill-rule="evenodd"></path>
    <path clip-rule="evenodd"
        d="M9 6H39C39.7957 6 40.5587 6.31607 41.1213 6.87868C41.6839 7.44129 42 8.20435 42 9V39C42 39.7957 41.6839 40.5587 41.1213 41.1213C40.5587 41.6839 39.7957 42 39 42H9C8.20435 42 7.44129 41.6839 6.87868 41.1213C6.31607 40.5587 6 39.7957 6 39V9C6 8.20435 6.31607 7.44129 6.87868 6.87868C7.44129 6.31607 8.20435 6 9 6ZM9 30V39H39V36L31.5 28.5L29.115 30.885C28.5529 31.4438 27.7926 31.7574 27 31.7574C26.2074 31.7574 25.4471 31.4438 24.885 30.885L16.5 22.5L9 30ZM33.615 26.37L39 31.755V9H9V25.755L14.385 20.37C14.9471 19.8112 15.7074 19.4976 16.5 19.4976C17.2926 19.4976 18.0529 19.8112 18.615 20.37L27 28.755L29.385 26.37C29.9471 25.8112 30.7074 25.4976 31.5 25.4976C32.2926 25.4976 33.0529 25.8112 33.615 26.37Z"
        fill="currentColor" fill-rule="evenodd"></path>
</svg>