<svg xmlns="http://www.w3.org/2000/svg" width="560" height="560" viewBox="0 0 560 560">
    <g fill="none" transform="translate(80 74)">
        <path fill="#FA320A"
            d="M398.290129,222.975966 C394.300429,159.0103 361.769957,111.15279 312.822318,84.3974249 C313.100429,85.9562232 311.713305,87.904721 310.133906,87.2145923 C278.118455,73.2094421 223.806009,118.534764 185.852361,94.7991416 C186.137339,103.317597 184.47382,144.871245 125.938197,147.281545 C124.556223,147.338197 123.795708,145.927039 124.669528,144.927897 C132.497854,135.999142 140.401717,113.393133 129.03691,101.341631 C104.698712,123.151073 90.5648069,131.358798 43.8987124,120.527897 C14.0206009,151.769099 -2.90987124,194.527897 0.413733906,247.793133 C7.19484979,356.527897 109.043777,418.682403 211.606867,412.282403 C314.16309,405.887554 405.072961,331.71073 398.290129,222.975966" />
        <path fill="#00912D"
            d="M211.375107,58.2927039 C232.449785,53.2695279 293.067811,57.8034335 312.48927,83.5665236 C313.654936,85.111588 312.013734,88.0351931 310.133906,87.2145923 C278.118455,73.2094421 223.806009,118.534764 185.852361,94.7991416 C186.137339,103.317597 184.47382,144.871245 125.938197,147.281545 C124.556223,147.338197 123.795708,145.927039 124.669528,144.927897 C132.497854,135.999142 140.4,113.393133 129.03691,101.341631 C102.525322,125.099571 88.1527897,132.733906 30.6111588,117.180258 C28.727897,116.672103 29.3699571,113.645494 31.3733906,112.881545 C42.248927,108.725322 66.8875536,90.52103 90.1974249,82.4969957 C94.6351931,80.9708155 99.0592275,79.7862661 103.376824,79.0978541 C77.711588,76.8042918 66.1424893,73.2351931 49.8180258,75.6969957 C48.0291845,75.9665236 46.8137339,73.8841202 47.9227468,72.455794 C69.9175966,44.1244635 110.436052,35.5682403 135.435193,50.6188841 C120.025751,31.5253219 107.955365,16.2978541 107.955365,16.2978541 L136.556223,0.052360515 C136.556223,0.052360515 148.372532,26.4523605 156.969957,45.6660944 C178.245494,14.2309013 217.830043,11.3296137 234.554506,33.6334764 C235.546781,34.9587983 234.509871,36.8437768 232.853219,36.8042918 C219.241202,36.4729614 211.745923,48.8540773 211.177682,58.2703863 L211.375107,58.2927039" />
    </g>
</svg>