<svg xmlns="http://www.w3.org/2000/svg" width="560" height="560" viewBox="0 0 560 560">
    <path fill="#0AC855"
        d="M375.185263,368.684474 C295.816316,372.851316 279.598421,282.031842 248.459474,282.678421 C235.190789,282.956579 224.733158,296.829474 229.325526,312.997632 C231.851053,321.885789 238.856579,334.920526 243.270263,343.009211 C258.839737,371.552632 235.822632,403.853947 208.887368,406.585789 C164.126053,411.126579 145.454474,385.160263 146.609474,358.578684 C147.908158,328.738421 173.209474,298.247895 147.259737,285.273947 C120.064737,271.677368 97.9576316,324.846053 71.9342105,336.712895 C48.3810526,347.454211 15.6855263,339.126053 4.06184211,312.971842 C-4.10236842,294.593158 -2.61763158,259.204474 33.7326316,245.701842 C56.4384211,237.268684 107.037368,256.730526 109.632895,232.079474 C112.624474,203.663158 56.4771053,201.266579 39.5721053,194.452632 C9.66,182.397895 -7.99473684,156.602895 5.83763158,128.930789 C16.2160526,108.173947 46.7526316,99.7278947 70.0607895,108.820526 C97.9834211,119.712895 102.465263,148.674474 116.771053,160.718158 C129.094737,171.098421 145.961053,172.397105 156.991579,165.260789 C165.126316,159.996053 167.834211,148.433158 164.765263,137.870526 C160.694211,123.848421 149.890263,115.098421 139.349737,106.525263 C120.591579,91.2763158 94.1094737,78.1642105 110.128421,36.5418421 C123.258947,2.43157895 161.77,1.20289474 161.77,1.20289474 C177.070526,-0.517631579 190.772105,4.10236842 201.937105,14.0773684 C216.863684,27.4123684 219.770526,45.2365789 217.272632,64.2526316 C214.990263,81.6107895 208.846842,96.8136842 205.643421,114.011579 C201.926053,133.978158 212.597368,154.097632 232.891842,154.880526 C259.585789,155.912105 267.589737,135.394737 270.855789,122.389474 C275.637895,103.360526 281.913947,85.6947368 299.574211,74.5684211 C324.919737,58.5992105 360.126053,62.0992105 376.46,92.7905263 C389.380526,117.075 385.232105,150.505526 365.412895,168.760789 C356.521053,176.948947 345.829474,179.835526 334.264737,179.916579 C317.680263,180.034474 301.103158,179.627368 285.708684,187.388158 C275.228947,192.669474 270.662368,201.275789 270.664211,212.811053 C270.664211,224.053421 276.516579,231.396053 285.999737,236.174474 C303.860789,245.176842 323.576842,247.017105 342.871053,250.395526 C370.850789,255.295526 395.452105,265.150789 411.246316,291.115263 C411.388158,291.343684 411.526316,291.573947 411.660789,291.806053 C429.8,322.547105 410.83,366.811053 375.185263,368.684474"
        transform="translate(70 76)" />
</svg>