<svg fill="currentColor" viewBox="0 0 48 48" xmlns="http://www.w3.org/2000/svg">
    <path
        d="M18.15 2.99999C15.2733 2.9902 12.457 3.82467 10.05 5.39999L19.65 15C19.9697 15.2728 20.2316 15.6068 20.4202 15.9823C20.6089 16.3579 20.7205 16.7674 20.7484 17.1868C20.7764 17.6061 20.7202 18.0268 20.583 18.4241C20.4459 18.8214 20.2307 19.1872 19.95 19.5C19.6372 19.7807 19.2714 19.9959 18.8741 20.133C18.4768 20.2702 18.0561 20.3264 17.6368 20.2985C17.2174 20.2705 16.8079 20.1589 16.4323 19.9703C16.0568 19.7816 15.7228 19.5197 15.45 19.2L5.54999 9.59999C3.83833 12.1187 2.94762 15.1052 2.99999 18.15C3.01579 22.1632 4.61702 26.0074 7.45477 28.8452C10.2925 31.683 14.1368 33.2842 18.15 33.3C19.4633 33.3072 20.7728 33.1561 22.05 32.85L32.1 42.9C33.5123 44.3123 35.4277 45.1057 37.425 45.1057C39.4222 45.1057 41.3377 44.3123 42.75 42.9C44.1623 41.4877 44.9557 39.5723 44.9557 37.575C44.9557 35.5777 44.1623 33.6623 42.75 32.25L32.7 22.2C33.0061 20.9228 33.1572 19.6133 33.15 18.3C33.1899 16.3051 32.8314 14.3222 32.0955 12.4676C31.3595 10.6129 30.261 8.92373 28.8641 7.49892C27.4672 6.07411 25.8001 4.94232 23.9604 4.16981C22.1207 3.39729 20.1453 2.99959 18.15 2.99999ZM30.15 18.15C30.1478 19.2159 29.9963 20.2762 29.7 21.3L29.25 22.95L30.45 24.15L40.5 34.2C40.928 34.6052 41.2685 35.0937 41.5007 35.6354C41.7329 36.1771 41.8517 36.7606 41.85 37.35C41.8669 37.9415 41.7549 38.5297 41.5218 39.0736C41.2886 39.6175 40.94 40.1043 40.5 40.5C40.0937 40.9266 39.605 41.2662 39.0635 41.4983C38.5221 41.7303 37.9391 41.85 37.35 41.85C36.7609 41.85 36.1779 41.7303 35.6364 41.4983C35.095 41.2662 34.6063 40.9266 34.2 40.5L24.15 30.45L22.95 29.25L21.3 29.7C20.2761 29.9963 19.2158 30.1478 18.15 30.15C14.9626 30.1411 11.9009 28.9057 9.59999 26.7C8.43636 25.6051 7.51488 24.2787 6.89485 22.8061C6.27483 21.3335 5.97 19.7475 5.99999 18.15C6.00205 17.0348 6.1534 15.925 6.44999 14.85L13.05 21.45C13.6077 22.0569 14.2806 22.5467 15.0295 22.8908C15.7784 23.235 16.5884 23.4266 17.4121 23.4545C18.2359 23.4824 19.0569 23.3461 19.8274 23.0535C20.5979 22.7608 21.3025 22.3177 21.9 21.75C22.4677 21.1525 22.9108 20.4479 23.2034 19.6774C23.4961 18.9069 23.6324 18.0859 23.6045 17.2621C23.5766 16.4384 23.385 15.6285 23.0408 14.8795C22.6967 14.1306 22.2069 13.4577 21.6 12.9L15 6.29999C15.9701 5.99318 16.9825 5.84131 18 5.84999C21.1874 5.85885 24.2491 7.09426 26.55 9.29999C28.853 11.671 30.144 14.8446 30.15 18.15Z"
        fill="currentColor"></path>
</svg>