<svg viewBox="0 0 560 560" xmlns="http://www.w3.org/2000/svg" stroke-miterlimit="1.414" stroke-linejoin="round">
    <path
        d="m448 441l-44.423 0c-65.833 0-103.843-28.598-141.383-96.109 5.44-10.89 10.99-22.734 16.727-35.594 3.556-7.986 4.181-9.387 5.622-12.617 36.245 74.928 65.419 102.32 119.034 102.32l44.423 0 0-77 112 98-112 98 0-77m0-322l0-77 112 98-112 98 0-77-44.423 0c-59.257 0-88.657 33.459-130.747 127.573-1.427 3.191-3.342 7.493-6.695 15.02-44.459 99.657-75.473 137.407-142.558 137.407l-95.577 0 0-42 95.577 0c43.602 0 66.367-27.71 104.202-112.518 3.333-7.485 5.267-11.827 6.711-15.055 48.4-108.225 87.24-152.427 169.087-152.427l44.423 0m-324.423 0c56.809 0 87.751 27.071 122.897 95.883-7.743 14.34-15.519 30.301-23.497 48.005-35.031-76.511-57.674-101.888-99.4-101.888l-95.577 0 0-42 95.577 0"
        fill="currentColor">
    </path>
</svg>