<svg fill="currentColor" height="48" viewBox="0 0 82 48" width="82" xmlns="http://www.w3.org/2000/svg">
    <path
        d="M44.8819 22.2769H69.4982C71.222 22.2769 72.8752 21.5919 74.0944 20.3726C75.3136 19.1534 75.999 17.4995 76 15.7747C76 14.0492 75.315 12.3944 74.0957 11.1743C72.8763 9.95422 71.2226 9.26878 69.4982 9.26878H44.8819C43.1576 9.26878 41.5038 9.95422 40.2845 11.1743C39.0652 12.3944 38.3801 14.0492 38.3801 15.7747C38.3811 17.4995 39.0666 19.1534 40.2858 20.3726C41.505 21.5919 43.1582 22.2769 44.8819 22.2769ZM12.5018 38.8454H40.7976C42.5214 38.8454 44.1746 38.1604 45.3938 36.9411C46.613 35.7218 47.2984 34.068 47.2994 32.3432C47.2994 30.6177 46.6144 28.9629 45.3951 27.7428C44.1758 26.5227 42.522 25.8373 40.7976 25.8373H12.5018C10.7774 25.8373 9.12365 26.5227 7.90433 27.7428C6.68501 28.9629 6 30.6177 6 32.3432H6C6.00098 34.068 6.68641 35.7218 7.90563 36.9411C9.12485 38.1604 10.778 38.8454 12.5018 38.8454ZM9.83042 22.0412H12.7005V11.5479H16.4168V9H6.11407V11.5405H9.83042V22.0412ZM20.17 22.0412H23.0401V12.0376H23.0768L26.3885 22.0339H28.5962L32.0182 12.0376H32.055V22.0339H34.925V9H30.5648L27.5475 17.5052H27.5107L24.5119 9H20.17V22.0412ZM62.0876 29.4971C61.7037 28.6961 61.1334 27.9991 60.4244 27.4647C59.6889 26.9264 58.8531 26.5409 57.9665 26.3306C56.9952 26.0878 55.9981 25.9642 54.9971 25.9624H50.692V38.9963H55.3834C56.3258 39.0009 57.2632 38.858 58.1615 38.5729C59.0096 38.3146 59.8021 37.9001 60.498 37.3505C61.175 36.8007 61.7237 36.1096 62.106 35.3255C62.5192 34.4542 62.7245 33.4988 62.7057 32.5346C62.7357 31.488 62.5242 30.4486 62.0876 29.4971ZM59.3537 34.2577C59.1384 34.749 58.8046 35.1792 58.3823 35.5096C57.9433 35.8324 57.4421 36.0606 56.9104 36.1797C56.3072 36.3187 55.6897 36.3867 55.0706 36.3822H53.5804V28.6502H55.273C55.8538 28.6473 56.4321 28.7254 56.9914 28.8822C57.5059 29.021 57.99 29.2545 58.419 29.5707C58.8124 29.8805 59.1317 30.2742 59.3537 30.7231C59.6064 31.2408 59.7325 31.8113 59.7216 32.3873C59.7378 33.0303 59.6121 33.6689 59.3537 34.2577ZM75.7755 34.2099C75.6456 33.8539 75.4482 33.5263 75.1942 33.2452C74.9414 32.9656 74.6396 32.7348 74.3037 32.5641C73.9374 32.379 73.5434 32.2547 73.1373 32.1959V32.1591C73.7684 31.9777 74.3334 31.6171 74.7637 31.1208C75.1878 30.6034 75.4077 29.9485 75.3818 29.2798C75.4094 28.6802 75.2624 28.0854 74.9587 27.5677C74.6815 27.1457 74.3017 26.8011 73.8548 26.5663C73.3741 26.3179 72.8535 26.1559 72.3168 26.0876C71.7537 26.0071 71.1856 25.9665 70.6168 25.9661H65.7598V39H71.0951C71.6789 39.0003 72.2611 38.9386 72.8319 38.8159C73.3876 38.7046 73.9202 38.4991 74.4067 38.2084C74.8672 37.9335 75.2577 37.5554 75.5474 37.1038C75.8577 36.5841 76.011 35.9857 75.989 35.3807C75.9895 34.9817 75.9211 34.5855 75.7866 34.2099H75.7755ZM68.6298 28.4109H70.58C70.8085 28.4118 71.0364 28.434 71.2607 28.4772C71.4783 28.5163 71.689 28.587 71.8862 28.687C72.0681 28.7863 72.2224 28.9293 72.3352 29.1031C72.4594 29.3039 72.5209 29.5372 72.5118 29.7732C72.5171 30.0041 72.4626 30.2324 72.3536 30.4359C72.2543 30.6147 72.1128 30.7664 71.9414 30.8778C71.7631 30.9909 71.5663 31.0718 71.3601 31.1171C71.1467 31.1674 70.928 31.1921 70.7088 31.1907H68.6298V28.4109ZM72.9423 35.7747C72.8316 35.9668 72.6779 36.1306 72.4934 36.2533C72.3063 36.3792 72.0962 36.4668 71.8752 36.511C71.6554 36.5606 71.4308 36.5853 71.2055 36.5847H68.6298V33.6392H70.8008C71.047 33.6415 71.2928 33.66 71.5367 33.6944C71.7956 33.73 72.049 33.798 72.291 33.8969C72.5167 33.9914 72.7152 34.1408 72.8687 34.3314C73.0288 34.5426 73.1107 34.8028 73.1005 35.0677C73.1123 35.3133 73.0576 35.5576 72.9423 35.7747Z"
        fill="url(#paint0_linear_67_335)"></path>
    <defs>
        <linearGradient gradientUnits="userSpaceOnUse" id="paint0_linear_67_335" x1="6" x2="76" y1="24.0074"
            y2="24.0074">
            <stop stop-color="#90CEA1"></stop>
            <stop offset="0.56" stop-color="#3CBEC9"></stop>
            <stop offset="1" stop-color="#00B3E5"></stop>
        </linearGradient>
    </defs>
</svg>