<svg fill="currentColor" height="48" viewBox="0 0 75 48" width="75" xmlns="http://www.w3.org/2000/svg">
    <rect fill="#333333" height="42" rx="2" width="63" x="6" y="3"></rect>
    <path clip-rule="evenodd"
        d="M13.4912 8.49833C12.9995 8.41449 12.508 8.33068 12.0158 8.25H11.3476C11.3476 8.25 10.9941 8.43222 10.8574 8.48428C9.1068 9.13507 8.4495 10.1373 8.66426 12.018C9.61441 20.4327 10.5711 28.8473 11.5537 37.2685C11.8336 39.6894 13.031 40.633 15.465 40.3662C16.882 40.2124 18.2957 40.0085 19.7084 39.8047C20.2681 39.724 20.8276 39.6433 21.3871 39.5658C24.2343 39.172 27.0798 38.7751 29.9254 38.3781C32.771 37.9811 35.6165 37.5841 38.4637 37.1904C39.6677 37.0212 40.5007 36.3509 40.761 35.2185C40.7893 35.0959 40.8219 34.9696 40.855 34.8409C41.0804 33.9653 41.3339 32.9807 40.4942 32.3225C36.1274 28.9254 36.1209 22.2939 40.4616 18.8903C40.6829 18.7211 40.9172 18.3892 40.9237 18.1289C40.9627 16.925 40.9757 15.7145 40.8976 14.5106C40.8 13.0398 39.9215 12.1352 38.4377 11.9334C35.23 11.4996 32.0224 11.0709 28.8147 10.6422C24.8052 10.1063 20.7956 9.57037 16.7861 9.02443C15.6813 8.87175 14.5859 8.68497 13.4912 8.49833ZM35.9387 15.0963C36.8953 15.0963 37.6893 15.8642 37.7023 16.8143C37.7153 17.7449 36.9279 18.5649 35.9842 18.604C35.0406 18.63 34.2271 17.8686 34.1946 16.9119C34.1555 15.8902 34.9234 15.0963 35.9387 15.0963ZM16.0116 24.1944H14.2806V22.8864H14.619V23.8105H14.9704V22.997H15.3088V23.8105H15.6732V22.8734H16.0116V24.1944ZM15.3153 24.9946H16.0116V24.6172H14.2806V24.9946H14.9639V25.6975H14.2806V26.0749H16.0116V25.6975H15.3153V24.9946ZM16.0116 26.8951H14.632V26.368H14.2806V27.7997H14.632V27.2726H16.0116V26.8951Z"
        fill="#227D3A" fill-rule="evenodd"></path>
    <path clip-rule="evenodd"
        d="M48.0302 19.2224V14.5693H51.4598V32.0234C50.6187 31.9922 49.7781 31.9716 48.9386 31.9509C46.9725 31.9026 45.0121 31.8544 43.0647 31.672C41.4117 31.5158 40.2728 30.3378 39.4984 28.8866C37.9821 26.0297 38.5743 22.2616 41.0408 20.3874C41.9128 19.7301 43.1558 19.4437 44.2817 19.268C45.0963 19.1375 45.9327 19.1657 46.8167 19.1955C47.2109 19.2088 47.6147 19.2224 48.0302 19.2224ZM47.9716 21.9622C47.6562 21.9622 47.3509 21.9582 47.0528 21.9542C46.4283 21.9458 45.8351 21.9379 45.2448 21.9688C43.5072 22.0664 42.4335 23.2313 42.2773 25.112C42.1081 27.1034 43.0387 28.7239 44.6917 29.0298C45.4253 29.1648 46.1839 29.1815 46.948 29.1984C47.2887 29.2059 47.6305 29.2135 47.9716 29.2315V21.9622Z"
        fill="white" fill-rule="evenodd"></path>
    <path clip-rule="evenodd"
        d="M66.1871 27.2269C65.4518 29.9342 63.7337 31.6262 60.9028 31.815C59.203 31.9274 57.4907 31.9 55.7618 31.8723C54.9886 31.8599 54.212 31.8475 53.4318 31.8475V14.6017H56.8874V19.2158C57.2724 19.2158 57.6461 19.215 58.0124 19.2143C58.7233 19.2128 59.4064 19.2115 60.0893 19.2158C63.6686 19.2483 65.4518 20.693 66.2652 24.1878L66.2667 24.1948C66.2881 24.2986 66.5429 25.5293 66.1871 27.2269ZM56.9655 29.2053C57.4157 29.1725 57.8751 29.1841 58.33 29.1956C59.8609 29.2342 61.3403 29.2716 62.2434 27.6109C63.0308 26.1661 63.0959 24.5197 62.1328 23.1465C61.1924 21.8132 59.8688 21.8756 58.5292 21.9386C58.0052 21.9633 57.4789 21.9881 56.972 21.9295C56.9655 24.4025 56.9655 26.7388 56.9655 29.2053Z"
        fill="white" fill-rule="evenodd"></path>
    <path
        d="M21.8036 19.4356C21.2297 19.4331 20.6473 19.4305 20.053 19.4305C20.053 18.0378 20.0335 15.5713 20.0335 15.5713V14.7904C20.0335 14.7904 17.58 14.7513 16.4737 14.7513V19.2352L14.3391 19.2548C14.3391 19.2548 14.2545 21.2917 14.2545 22.1898H16.5192V23.3807C16.5214 23.9687 16.52 24.556 16.5185 25.143C16.5156 26.3167 16.5127 27.4895 16.5388 28.6651C16.5713 30.1945 17.5084 31.6652 18.784 31.8865C19.7706 32.0577 20.7758 32.1041 21.7912 32.1511C22.2427 32.1719 22.6961 32.1929 23.1507 32.2249V29.394C22.9703 29.394 22.7966 29.3958 22.6276 29.3977C22.2482 29.4017 21.8925 29.4055 21.5368 29.3875C20.8079 29.3549 20.1701 28.9905 20.1376 28.2681C20.082 26.8458 20.0924 25.4168 20.103 23.9578C20.1073 23.3674 20.1116 22.7721 20.1116 22.1703C20.4646 22.1703 20.8083 22.1732 21.1455 22.1761C21.9332 22.1828 22.6851 22.1892 23.4371 22.1573C24.0683 22.1312 24.3612 22.385 24.5825 22.9577C25.422 25.1444 26.294 27.3245 27.1856 29.4916C27.2788 29.7196 27.3627 29.9681 27.4473 30.2188C27.6934 30.9484 27.9461 31.697 28.4546 32.0167C29.0265 32.3734 29.9113 32.2692 30.7443 32.171C30.9446 32.1474 31.1419 32.1242 31.3311 32.1078C31.689 32.0752 32.1901 31.7629 32.3268 31.4505C33.7564 28.2339 35.1464 24.9975 36.5357 21.7629C36.7401 21.2869 36.9446 20.8109 37.1491 20.3351C37.2237 20.1683 37.2658 19.9896 37.3172 19.7712C37.342 19.6658 37.369 19.5511 37.4029 19.424C37.0821 19.424 36.7756 19.4277 36.4794 19.4314C35.8205 19.4394 35.2127 19.4469 34.6111 19.411C33.9863 19.3784 33.6674 19.6062 33.4462 20.1854C32.7954 21.8904 32.112 23.576 31.4222 25.268C31.1957 25.8321 30.9524 26.3879 30.6885 26.9904C30.5506 27.3054 30.407 27.6333 30.2573 27.9818C30.189 27.8239 30.1308 27.6924 30.0802 27.5778C29.991 27.3761 29.9249 27.2266 29.8668 27.0772C29.6292 26.4397 29.3894 25.8022 29.1495 25.1643C28.5419 23.549 27.9333 21.9308 27.3548 20.3025C27.1205 19.6452 26.7951 19.3914 26.0793 19.411C24.6725 19.4483 23.2658 19.4421 21.8036 19.4356Z"
        fill="white"></path>
</svg>